<svg xmlns="http://www.w3.org/2000/svg" xmlns:xlink="http://www.w3.org/1999/xlink" viewBox="0 0 586.47 154.19"><style>.a,.b,.h{fill:#fff;}.a{clip-rule:evenodd;}.b{fill-rule:evenodd;}.c{clip-path:url(#a);}.d{clip-path:url(#b);}.e{clip-path:url(#c);}.f{clip-path:url(#d);}.g{clip-path:url(#e);}.i{clip-path:url(#f);}.j{clip-path:url(#g);}.k{clip-path:url(#h);}</style><clipPath id="a" transform="translate(15.52 -1.45)"><path class="a" d="M103,63.91l9.85-5.54c2.63-1.48,4.73-6.42,4.76-11.29l.12-19.38c0-6.2-2.45-10.58-5.65-9.4L99.94,22.77c-3.71,1.36-6.2,8.19-5.49,14.82L96.64,58C97.18,63.06,100.06,65.58,103,63.91Z"/></clipPath><clipPath id="b" transform="translate(15.52 -1.45)"><path class="a" d="M73.7,79.07l12.7-7.15c3.36-1.89,5.45-7.31,4.71-12.42l-3-20.68c-1-6.74-5.22-11.3-9.55-9.7L61.9,35.24c-5.15,1.89-7.48,9.72-5.17,16.9l6.93,21.63C65.35,79,69.85,81.24,73.7,79.07Z"/></clipPath><clipPath id="c" transform="translate(15.52 -1.45)"><path class="a" d="M34.63,101.67l17-9.57C56.08,89.6,58,83.59,56,78.32L47.7,56.47c-2.78-7.29-10-11.87-16.25-9.59L7.16,55.81c-7.64,2.8-9.42,11.93-4.1,19.6L18.6,97.78A12.43,12.43,0,0,0,34.63,101.67Z"/></clipPath><clipPath id="d" transform="translate(15.52 -1.45)"><path class="a" d="M106.55,93.86l7.94-5.78c2.14-1.57,3.86-5.33,3.88-8.56L118.45,67c0-3.92-1.94-6-4.45-4.52l-9.38,5.66c-2.81,1.7-4.78,6.49-4.35,10.49l1.36,12.66C102,94.49,104.2,95.59,106.55,93.86Z"/></clipPath><clipPath id="e" transform="translate(15.52 -1.45)"><path class="a" d="M81.64,112l9.73-7.1a10.44,10.44,0,0,0,3.86-9.15L93.41,83.05c-.58-4-3.58-5.89-6.75-4L74.72,86.28a10.43,10.43,0,0,0-4.23,11.41l4,12.55C75.53,113.4,78.73,114.09,81.64,112Z"/></clipPath><clipPath id="f" transform="translate(15.52 -1.45)"><path class="a" d="M55.67,131.12l12.21-8.91c3.26-2.38,4.92-6.68,3.73-9.81L66.85,99.93c-1.52-4-6.08-5.44-10.22-2.94l-15.72,9.49c-4.79,2.89-6.5,8.63-3.82,12.48l8.23,11.86C47.37,133.76,52,133.8,55.67,131.12Z"/></clipPath><clipPath id="g" transform="translate(15.52 -1.45)"><path class="a" d="M89.08,135.25l7.84-6.64c2.12-1.8,3.56-5,3.25-7.15L99,113c-.38-2.62-2.67-3.33-5.15-1.45l-9.21,7c-2.75,2.09-4.34,6-3.53,8.48l2.6,8.09C84.32,137.21,86.76,137.22,89.08,135.25Z"/></clipPath><clipPath id="h" transform="translate(15.52 -1.45)"><path class="a" d="M68,153.48l9.43-8c2.54-2.15,4-5.47,3.18-7.51l-3-8c-1-2.48-4.18-2.74-7.24-.41l-11.43,8.7c-3.43,2.61-4.93,6.71-3.34,9l5,7.24C61.91,156.38,65.23,155.85,68,153.48Z"/></clipPath><path class="b" d="M106.55,93.86l7.94-5.78c2.14-1.57,3.86-5.33,3.88-8.56L118.45,67c0-3.92-1.94-6-4.45-4.52l-9.38,5.66c-2.81,1.7-4.78,6.49-4.35,10.49l1.36,12.66C102,94.49,104.2,95.59,106.55,93.86Z" transform="translate(15.52 -1.45)"/><path class="b" d="M81.64,112l9.73-7.1a10.44,10.44,0,0,0,3.86-9.15L93.41,83.05c-.58-4-3.58-5.89-6.75-4L74.72,86.28a10.43,10.43,0,0,0-4.23,11.41l4,12.55C75.53,113.4,78.73,114.09,81.64,112Z" transform="translate(15.52 -1.45)"/><path class="b" d="M55.67,131.12l12.21-8.91c3.26-2.38,4.92-6.68,3.73-9.81L66.85,99.93c-1.52-4-6.08-5.44-10.22-2.94l-15.72,9.49c-4.79,2.89-6.5,8.63-3.82,12.48l8.23,11.86C47.37,133.76,52,133.8,55.67,131.12Z" transform="translate(15.52 -1.45)"/><path class="b" d="M103,63.91l9.85-5.54c2.63-1.48,4.73-6.42,4.76-11.29l.12-19.38c0-6.2-2.45-10.58-5.65-9.4L99.94,22.77c-3.71,1.36-6.2,8.19-5.49,14.82L96.64,58C97.18,63.06,100.06,65.58,103,63.91Z" transform="translate(15.52 -1.45)"/><path class="b" d="M73.7,79.07l12.7-7.15c3.36-1.89,5.45-7.31,4.71-12.42l-3-20.68c-1-6.74-5.22-11.3-9.55-9.7L61.9,35.24c-5.15,1.89-7.48,9.72-5.17,16.9l6.93,21.63C65.35,79,69.85,81.24,73.7,79.07Z" transform="translate(15.52 -1.45)"/><path class="b" d="M34.63,101.67l17-9.57C56.08,89.6,58,83.59,56,78.32L47.7,56.47c-2.78-7.29-10-11.87-16.25-9.59L7.16,55.81c-7.64,2.8-9.42,11.93-4.1,19.6L18.6,97.78A12.43,12.43,0,0,0,34.63,101.67Z" transform="translate(15.52 -1.45)"/><path class="b" d="M107.83,118.64l6.61-5.61a10.19,10.19,0,0,0,3.26-6.8l0-8.7c0-2.67-1.6-3.68-3.65-2.12l-7.58,5.78a10,10,0,0,0-3.59,8l.91,8.53C104.08,119.92,105.88,120.29,107.83,118.64Z" transform="translate(15.52 -1.45)"/><path class="b" d="M89.08,135.25l7.84-6.64c2.12-1.8,3.56-5,3.25-7.15L99,113c-.38-2.62-2.67-3.33-5.15-1.45l-9.21,7c-2.75,2.09-4.34,6-3.53,8.48l2.6,8.09C84.32,137.21,86.76,137.22,89.08,135.25Z" transform="translate(15.52 -1.45)"/><path class="b" d="M68,153.48l9.43-8c2.54-2.15,4-5.47,3.18-7.51l-3-8c-1-2.48-4.18-2.74-7.24-.41l-11.43,8.7c-3.43,2.61-4.93,6.71-3.34,9l5,7.24C61.91,156.38,65.23,155.85,68,153.48Z" transform="translate(15.52 -1.45)"/><path class="b" d="M103,63.91l9.85-5.54c2.63-1.48,4.73-6.42,4.76-11.29l.12-19.38c0-6.2-2.45-10.58-5.65-9.4L99.94,22.77c-3.71,1.36-6.2,8.19-5.49,14.82L96.64,58C97.18,63.06,100.06,65.58,103,63.91Z" transform="translate(15.52 -1.45)"/><g class="c"><path class="b" d="M112.55,26.92c0,14-8.15,25.32-18.22,25.32S76.11,40.9,76.11,26.92,84.27,1.6,94.33,1.6,112.55,12.94,112.55,26.92Z" transform="translate(15.52 -1.45)"/></g><path class="b" d="M73.7,79.07l12.7-7.15c3.36-1.89,5.45-7.31,4.71-12.42l-3-20.68c-1-6.74-5.22-11.3-9.55-9.7L61.9,35.24c-5.15,1.89-7.48,9.72-5.17,16.9l6.93,21.63C65.35,79,69.85,81.24,73.7,79.07Z" transform="translate(15.52 -1.45)"/><g class="d"><path class="b" d="M79.63,46.29c0,12.84-6.53,23.24-14.57,23.24S50.49,59.13,50.49,46.29,57,23.06,65.06,23.06,79.63,33.46,79.63,46.29Z" transform="translate(15.52 -1.45)"/></g><path class="b" d="M34.63,101.67l17-9.57C56.08,89.6,58,83.59,56,78.32L47.7,56.47c-2.78-7.29-10-11.87-16.25-9.59L7.16,55.81c-7.64,2.8-9.42,11.93-4.1,19.6L18.6,97.78A12.43,12.43,0,0,0,34.63,101.67Z" transform="translate(15.52 -1.45)"/><g class="e"><path class="b" d="M39.76,61c0,18.58-12.38,33.63-27.64,33.63S-15.52,79.62-15.52,61-3.15,27.41,12.12,27.41,39.76,42.47,39.76,61Z" transform="translate(15.52 -1.45)"/></g><path class="b" d="M106.55,93.86l7.94-5.78c2.14-1.57,3.86-5.33,3.88-8.56L118.45,67c0-3.92-1.94-6-4.45-4.52l-9.38,5.66c-2.81,1.7-4.78,6.49-4.35,10.49l1.36,12.66C102,94.49,104.2,95.59,106.55,93.86Z" transform="translate(15.52 -1.45)"/><g class="f"><path class="b" d="M113,72.78C113,81.16,108,88,101.78,88S90.53,81.16,90.53,72.78s5-15.16,11.25-15.16S113,64.41,113,72.78Z" transform="translate(15.52 -1.45)"/></g><path class="b" d="M81.64,112l9.73-7.1a10.44,10.44,0,0,0,3.86-9.15L93.41,83.05c-.58-4-3.58-5.89-6.75-4L74.72,86.28a10.43,10.43,0,0,0-4.23,11.41l4,12.55C75.53,113.4,78.73,114.09,81.64,112Z" transform="translate(15.52 -1.45)"/><g class="g"><ellipse class="h" cx="89.07" cy="87.96" rx="15.31" ry="19.81"/></g><path class="b" d="M55.67,131.12l12.21-8.91c3.26-2.38,4.92-6.68,3.73-9.81L66.85,99.93c-1.52-4-6.08-5.44-10.22-2.94l-15.72,9.49c-4.79,2.89-6.5,8.63-3.82,12.48l8.23,11.86C47.37,133.76,52,133.8,55.67,131.12Z" transform="translate(15.52 -1.45)"/><g class="i"><path class="b" d="M58.34,107.17c0,11-7.33,19.93-16.38,19.93s-16.39-8.92-16.39-19.93S32.91,87.23,42,87.23,58.34,96.16,58.34,107.17Z" transform="translate(15.52 -1.45)"/></g><path class="b" d="M89.08,135.25l7.84-6.64c2.12-1.8,3.56-5,3.25-7.15L99,113c-.38-2.62-2.67-3.33-5.15-1.45l-9.21,7c-2.75,2.09-4.34,6-3.53,8.48l2.6,8.09C84.32,137.21,86.76,137.22,89.08,135.25Z" transform="translate(15.52 -1.45)"/><g class="j"><path class="b" d="M92.24,119.66c0,6.56-4.27,11.87-9.54,11.87s-9.54-5.31-9.54-11.87,4.27-11.86,9.54-11.86S92.24,113.11,92.24,119.66Z" transform="translate(15.52 -1.45)"/></g><path class="b" d="M68,153.48l9.43-8c2.54-2.15,4-5.47,3.18-7.51l-3-8c-1-2.48-4.18-2.74-7.24-.41l-11.43,8.7c-3.43,2.61-4.93,6.71-3.34,9l5,7.24C61.91,156.38,65.23,155.85,68,153.48Z" transform="translate(15.52 -1.45)"/><g class="k"><path class="b" d="M69.17,134.83C69.17,143.2,62.81,150,55,150s-14.2-6.79-14.2-15.16,6.36-15.17,14.2-15.17S69.17,126.45,69.17,134.83Z" transform="translate(15.52 -1.45)"/></g><path class="h" d="M186.55,87.22a2.65,2.65,0,0,1,3-1.77,3.35,3.35,0,0,1,2.82,2.2,5.68,5.68,0,0,1,.12,1.2,2.47,2.47,0,0,1-.3,1.19A32.69,32.69,0,0,1,186.77,97a30.19,30.19,0,0,1-7,5.09,33.12,33.12,0,0,1-8.17,3,29.43,29.43,0,0,1-9,.52,26.67,26.67,0,0,1-8.85-2.09A35,35,0,0,1,146.13,99a30.54,30.54,0,0,1-2.45-2,21.68,21.68,0,0,1-2.21-2.36,32.06,32.06,0,0,1-5.78-10.41A28.93,28.93,0,0,1,134.37,72a30.89,30.89,0,0,1,3.43-11.88,30,30,0,0,1,7.44-9.22,31.24,31.24,0,0,1,10.44-5.66A30.93,30.93,0,0,1,168,43.92a30.42,30.42,0,0,1,11.27,3.19,31.41,31.41,0,0,1,9,6.86,21.42,21.42,0,0,1,1.65,1.86A18.87,18.87,0,0,1,191.39,58a3.22,3.22,0,0,1-.7,4.1,3.18,3.18,0,0,1-4.81-.86c-.41-.57-.8-1.12-1.16-1.65a10.89,10.89,0,0,0-1.23-1.47,25.79,25.79,0,0,0-7.17-5.42,24.18,24.18,0,0,0-18.55-1.41,25.49,25.49,0,0,0-8.3,4.59,25,25,0,0,0-6,7.32,24.12,24.12,0,0,0-2.82,9.37,23,23,0,0,0,1.16,9.65,26.88,26.88,0,0,0,4.53,8.18,25.18,25.18,0,0,0,2.18,2.36,28.29,28.29,0,0,0,2.42,2,29.24,29.24,0,0,0,5.69,3,22.6,22.6,0,0,0,6.5,1.44,23.32,23.32,0,0,0,13.53-2.67A25.58,25.58,0,0,0,186.55,87.22Z" transform="translate(15.52 -1.45)"/><path class="h" d="M221.71,43.55h.67a29.52,29.52,0,0,1,12,2.45,32.8,32.8,0,0,1,9.8,6.65,30.59,30.59,0,0,1,6.67,9.8,31.29,31.29,0,0,1,0,24.13,31.3,31.3,0,0,1-6.67,9.86,31.81,31.81,0,0,1-9.8,6.68,29.84,29.84,0,0,1-12,2.42,30.66,30.66,0,0,1-21.95-9.1,31.84,31.84,0,0,1-6.62-9.86,30.88,30.88,0,0,1,4.75-31.88,32.33,32.33,0,0,1,8-6.77,30.43,30.43,0,0,1,9.86-3.83A28.38,28.38,0,0,1,221.71,43.55Zm-21.5,20.09a25.24,25.24,0,0,0-2.45,10.84A24.47,24.47,0,0,0,205,92a25.31,25.31,0,0,0,7.84,5.24,24,24,0,0,0,9.52,1.89,24.21,24.21,0,0,0,22.6-15,24.57,24.57,0,0,0,1.9-9.62,25,25,0,0,0-2.54-10.65,25.5,25.5,0,0,0-6.43-8.3,23.72,23.72,0,0,0-20.24-5.06A22.84,22.84,0,0,0,207.29,55,24.66,24.66,0,0,0,200.21,63.64Z" transform="translate(15.52 -1.45)"/><path class="h" d="M334.22,105a11.14,11.14,0,0,1-4.16-3.1,7.75,7.75,0,0,1-1.9-5.3l-.25-29.4a19.12,19.12,0,0,0-1.07-6.46,17.64,17.64,0,0,0-3.06-5.42,14.5,14.5,0,0,0-4.93-3.79,15.42,15.42,0,0,0-6.74-1.41,15.76,15.76,0,0,0-12.31,5.63,21.65,21.65,0,0,1,2.64,10.41v36.26a3.52,3.52,0,0,1-1.05,2.21,3.09,3.09,0,0,1-2.26.92,3.16,3.16,0,0,1-2.21-.92,2.8,2.8,0,0,1-1-2.08V67.19a21,21,0,0,0-1-6.52,15.47,15.47,0,0,0-3.06-5.45,15.82,15.82,0,0,0-5-3.8A15.09,15.09,0,0,0,280.14,50,15.65,15.65,0,0,0,274,51.21a15.12,15.12,0,0,0-5.08,3.49,17.4,17.4,0,0,0-3.49,5.45,18.2,18.2,0,0,0-1.32,7v35.22a3,3,0,0,1-.89,2.21,3.21,3.21,0,0,1-4.5,0,3.12,3.12,0,0,1-.85-2.21V47a3.34,3.34,0,0,1,.82-2.32,2.91,2.91,0,0,1,2.3-.92,3.14,3.14,0,0,1,3.12,3.12v3.55a20.87,20.87,0,0,1,7.17-5,22.08,22.08,0,0,1,8.57-1.68,22.45,22.45,0,0,1,8.85,1.8,22.22,22.22,0,0,1,7.26,4.87,21.4,21.4,0,0,1,7.26-5,22,22,0,0,1,8.48-1.68,22.6,22.6,0,0,1,9.25,1.84,21.4,21.4,0,0,1,7.11,5,22.65,22.65,0,0,1,4.56,7.16,22.37,22.37,0,0,1,1.62,8.39v28.3c0,1.88.4,3.12,1.2,3.74a4.71,4.71,0,0,0,3,.91,6.66,6.66,0,0,0,3.7-1,6,6,0,0,1,3.22-1,2.76,2.76,0,0,1,2.29,1,3.46,3.46,0,0,1,.83,2.21,3.28,3.28,0,0,1-1.28,2.6,9.2,9.2,0,0,1-3,1.66,18.16,18.16,0,0,1-3.46.79,21.47,21.47,0,0,1-2.32.22,15.61,15.61,0,0,1-2.06-.13A13.1,13.1,0,0,1,334.22,105Z" transform="translate(15.52 -1.45)"/><path class="h" d="M343.1,60A5.42,5.42,0,0,0,342,56.78a16.33,16.33,0,0,0-2.2-2.2c-.8-.65-1.54-1.28-2.21-1.87a2.86,2.86,0,0,1-1-2.24,3.71,3.71,0,0,1,.8-2A3,3,0,0,1,340,47.29a4.42,4.42,0,0,1,2.39.86,14.74,14.74,0,0,1,2.42,2,18.13,18.13,0,0,1,2.11,2.63,13.31,13.31,0,0,1,1.41,2.64,29.31,29.31,0,0,1,10.38-8.55,30.32,30.32,0,0,1,13.69-3.09,29.65,29.65,0,0,1,12,2.42,31.71,31.71,0,0,1,9.83,6.64,31.08,31.08,0,0,1,6.68,9.83,31.06,31.06,0,0,1,0,24,31.71,31.71,0,0,1-16.51,16.51,30.58,30.58,0,0,1-34.91-7.87v49.49a2.92,2.92,0,0,1-1,2.17,3.1,3.1,0,0,1-2.2.95,3.19,3.19,0,0,1-3.19-3.12Zm29.28-9.8a24.28,24.28,0,0,0-7.6,1.19,25.28,25.28,0,0,0-6.61,3.31,23.68,23.68,0,0,0-5.24,5A24,24,0,0,0,349.47,66v17.4a23,23,0,0,0,3.46,6.24,23.5,23.5,0,0,0,5.24,5,25.83,25.83,0,0,0,6.61,3.28,24,24,0,0,0,7.6,1.19A24.78,24.78,0,0,0,382,97.21,23.62,23.62,0,0,0,389.77,92,24.84,24.84,0,0,0,395,84.28a23.76,23.76,0,0,0,1.93-9.55A24,24,0,0,0,395,65.14a25.24,25.24,0,0,0-5.18-7.81A23.74,23.74,0,0,0,382,52.1,24.28,24.28,0,0,0,372.38,50.17Z" transform="translate(15.52 -1.45)"/><path class="h" d="M407.9,54.82a8.68,8.68,0,0,0-.85-2.36c-.41-.75-.83-1.44-1.26-2.08s-.81-1.23-1.13-1.8a3.18,3.18,0,0,1-.49-1.54,3.37,3.37,0,0,1,.85-2.23,2.67,2.67,0,0,1,2.09-1,4.34,4.34,0,0,1,2.63,1A9.88,9.88,0,0,1,412,47.26a15.24,15.24,0,0,1,1.59,3.24,10.07,10.07,0,0,1,.61,3.34V82.08a19.72,19.72,0,0,0,1.07,6.46,17.09,17.09,0,0,0,3.1,5.48,14.09,14.09,0,0,0,5,3.74A15.8,15.8,0,0,0,430,99.1a15,15,0,0,0,11.21-4.47q4.41-4.47,4.84-12.55V46.74a3.23,3.23,0,0,1,1-2.12,3,3,0,0,1,2.11-.82,3,3,0,0,1,2.24.82,2.89,2.89,0,0,1,.83,2.12v48c0,2.94,1.38,4.4,4.16,4.4a6.11,6.11,0,0,0,3.55-1,5.36,5.36,0,0,1,3-1,3.24,3.24,0,0,1,2.61.92,3.51,3.51,0,0,1,.76,2.33,3.34,3.34,0,0,1-1.22,2.6,8.67,8.67,0,0,1-2.91,1.66,17,17,0,0,1-3.46.79,23.3,23.3,0,0,1-2.76.22,23.91,23.91,0,0,1-5.88-1.75c-1.75-.8-3-2.62-3.73-5.48l-.31.55a22.74,22.74,0,0,1-16.17,6.68,21.12,21.12,0,0,1-8.73-1.81,21.89,21.89,0,0,1-6.89-4.81,23.22,23.22,0,0,1-4.56-6.86A21.61,21.61,0,0,1,407.9,84Z" transform="translate(15.52 -1.45)"/><path class="h" d="M487.22,45.15a8.53,8.53,0,0,1-.12,3.36,2,2,0,0,1-2.21,1.6H472.46V91.45c0,2.49.54,4.21,1.62,5.14a10.07,10.07,0,0,0,3.55,2c1.29.4,2.47.79,3.56,1.16a2.45,2.45,0,0,1,1.62,2.63,2.88,2.88,0,0,1-1,2.27,3.13,3.13,0,0,1-2.08.86,13.38,13.38,0,0,1-6.74-1.87,16.56,16.56,0,0,1-5.33-4.81,8.07,8.07,0,0,1-.89-1.9,10.23,10.23,0,0,1-.36-2.14c-.07-.82-.1-1.84-.1-3.06V87.1c-.16-.12-.24-1.37-.24-3.74V74.42q0-5.39.06-11.79t-.06-12.52H454.45a3.21,3.21,0,0,1-2.36-.89A3,3,0,0,1,451.2,47a3.07,3.07,0,0,1,.89-2.2,3.52,3.52,0,0,1,2.3-1h11.7Q466,19.37,466,17.46t0-7.29q0-5.38,0-6.83c0-.95.56-1.56,1.74-1.8q4.17-.44,4.72,1.28v41q5.51,0,8.73,0l3.55,0q.33,0,1.5.12Z" transform="translate(15.52 -1.45)"/><path class="h" d="M541.73,85.2c.08.25.14.46.18.64a3.13,3.13,0,0,1,.06.65.67.67,0,0,1-.06.3.75.75,0,0,0-.06.31l-.3,1.1a33.12,33.12,0,0,1-4.78,7,31.45,31.45,0,0,1-6.4,5.49,30.86,30.86,0,0,1-7.78,3.61A30.38,30.38,0,0,1,494,98.31l-4.72,4.84a3.83,3.83,0,0,1-2.39,1.1,3.28,3.28,0,0,1-2.36-.92,3.11,3.11,0,0,1-.95-2.33,2.37,2.37,0,0,1,.31-1.19,10.69,10.69,0,0,1,1-1.38l4.66-4.53a28.87,28.87,0,0,1-6.68-19.17,30.18,30.18,0,0,1,2.42-12,30.77,30.77,0,0,1,6.62-9.8,31.56,31.56,0,0,1,9.76-6.58,29.9,29.9,0,0,1,12-2.42,30.75,30.75,0,0,1,9.77,1.56,29.17,29.17,0,0,1,8.42,4.38,17.1,17.1,0,0,1,1.47,1.23,4,4,0,0,1,1.13,1.8,4.32,4.32,0,0,1,0,2.42,7.22,7.22,0,0,1-2,3.07l-34.05,35.4a23,23,0,0,0,7,4,24.16,24.16,0,0,0,8.3,1.41A23.47,23.47,0,0,0,527,95.34a24.4,24.4,0,0,0,8.82-10.14,3.07,3.07,0,0,1,2.94-1.9A2.91,2.91,0,0,1,541.73,85.2Zm-28-35a23.55,23.55,0,0,0-9.52,1.93,24.75,24.75,0,0,0-7.78,5.26,24.49,24.49,0,0,0-5.24,7.81,24.14,24.14,0,0,0-1.9,9.56,23.49,23.49,0,0,0,1.29,7.84,25.25,25.25,0,0,0,3.55,6.74l.73-.8L527.4,54.58a25.56,25.56,0,0,0-6.34-3.22A22.47,22.47,0,0,0,513.74,50.17Z" transform="translate(15.52 -1.45)"/><path class="h" d="M546.44,102.41a3,3,0,0,1-1,2.12,3.25,3.25,0,0,1-2.26.88,2.9,2.9,0,0,1-2.08-.88,2.83,2.83,0,0,1-.92-2.12V47.6a3,3,0,0,1,.92-2.18,2.83,2.83,0,0,1,2.08-1,3.23,3.23,0,0,1,2.36,1,3,3,0,0,1,.94,2.18v3.55a22.84,22.84,0,0,1,4-3.25,25.35,25.35,0,0,1,5.2-2.54A28.64,28.64,0,0,1,561.6,44a26.37,26.37,0,0,1,6.28,0q3.06.67,3.06,3.37a3.22,3.22,0,0,1-.85,2.27,2.42,2.42,0,0,1-2.39.61h-.37a17.59,17.59,0,0,0-5.88.4,24.22,24.22,0,0,0-6,2.2,23.2,23.2,0,0,0-5.12,3.65,11.58,11.58,0,0,0-3.12,4.65c-.2.82-.39,1.74-.55,2.76a19.37,19.37,0,0,0-.25,3Z" transform="translate(15.52 -1.45)"/></svg>
